<svg t="1620995208350" class="icon" viewBox="0 0 1024 1024" version="1.1" xmlns="http://www.w3.org/2000/svg" p-id="2200"
     width="200" height="200">
    <path d="M297.9 632.7h475.2V850H297.9z" fill="#ffffff" p-id="2201"></path>
    <path d="M943.2 305c0-80.9-92-139.4-146.3-161.2l-47.6-19.1-0.2 51.3c-0.3 76.4-26.8 115.2-78.7 115.2H400.8c-83.5 0-90.4-88.1-90.5-115.2l-0.2-51.3-47.6 19.1c-64.8 26-134.6 87.5-134.6 161.2 0 39.9 13.7 76.6 36.4 106v80.1c0 61.3 50.4 111.4 113.5 114.4v46.8c-16.8 24.9-26.6 54.9-26.6 87.2v3.4c0 86.2 70.1 156.3 156.3 156.3h256.1c86.2 0 156.3-70.1 156.3-156.3v-3.4c0-32.2-9.8-62.2-26.6-87.2v-46.8c63.1-3 113.5-53.1 113.5-114.4V411c22.7-29.4 36.4-66.1 36.4-106z m-696.5-73.1C265.1 311 322.5 361 400.8 361h269.5c76.8 0 128.1-47.6 143.6-129.9 33 21.5 59.6 49.8 59.6 74 0 57.3-46.6 103.9-103.9 103.9h-468c-57.3 0-103.9-46.6-103.9-103.9 0-25.6 21.3-52.8 49-73.2z m100.8 246.8h376v116.4c-18.5-7.7-38.7-12-59.9-12H407.5c-21.2 0-41.5 4.3-60 12V478.7zM234 491.1V465c13.7 5.8 28.5 9.7 43.7 11.8v58.7c-24.5-2.7-43.7-21.4-43.7-44.4z m516.2 251.8c0 47.7-38.8 86.6-86.6 86.6H407.5c-47.7 0-86.6-38.8-86.6-86.6v-3.4c0-47.7 38.8-86.6 86.6-86.6h256.1c23.3 0 44.4 9.4 59.9 24.4v1.4h1.6c15.5 15.6 25 37.1 25 60.8v3.4z m43.1-207.3v-58.7c15.3-2.1 30-6 43.7-11.8v26.1c0.1 22.9-19.1 41.6-43.7 44.4z"
          fill="#ffffff" p-id="2202"></path>
    <path d="M455.3 740.4m-34.9 0a34.9 34.9 0 1 0 69.8 0 34.9 34.9 0 1 0-69.8 0Z" fill="#ffffff" p-id="2203"></path>
    <path d="M615.8 740.4m-34.9 0a34.9 34.9 0 1 0 69.8 0 34.9 34.9 0 1 0-69.8 0Z" fill="#ffffff" p-id="2204"></path>
</svg>